#N canvas 92 324 835 350 10;
#X obj 61 63 lop~ 5000;
#X obj 61 85 lop~ 5000;
#X obj 61 107 lop~ 5000;
#X obj 61 129 lop~ 5000;
#X obj 61 151 lop~ 5000;
#X obj 61 173 lop~ 5000;
#X obj 61 195 lop~ 5000;
#X obj 61 217 lop~ 5000;
#X obj 123 63 lop~ 5000;
#X obj 123 85 lop~ 5000;
#X obj 123 107 lop~ 5000;
#X obj 123 129 lop~ 5000;
#X obj 123 151 lop~ 5000;
#X obj 123 173 lop~ 5000;
#X obj 123 195 lop~ 5000;
#X obj 123 217 lop~ 5000;
#X obj 185 63 lop~ 5000;
#X obj 185 85 lop~ 5000;
#X obj 185 107 lop~ 5000;
#X obj 185 129 lop~ 5000;
#X obj 185 151 lop~ 5000;
#X obj 185 173 lop~ 5000;
#X obj 185 195 lop~ 5000;
#X obj 185 217 lop~ 5000;
#X obj 247 63 lop~ 5000;
#X obj 247 85 lop~ 5000;
#X obj 247 107 lop~ 5000;
#X obj 247 129 lop~ 5000;
#X obj 247 151 lop~ 5000;
#X obj 247 173 lop~ 5000;
#X obj 247 195 lop~ 5000;
#X obj 247 217 lop~ 5000;
#X obj 309 63 lop~ 5000;
#X obj 309 85 lop~ 5000;
#X obj 309 107 lop~ 5000;
#X obj 309 129 lop~ 5000;
#X obj 309 151 lop~ 5000;
#X obj 309 173 lop~ 5000;
#X obj 309 195 lop~ 5000;
#X obj 309 217 lop~ 5000;
#X obj 371 63 lop~ 5000;
#X obj 371 85 lop~ 5000;
#X obj 371 107 lop~ 5000;
#X obj 371 129 lop~ 5000;
#X obj 371 151 lop~ 5000;
#X obj 371 173 lop~ 5000;
#X obj 371 195 lop~ 5000;
#X obj 371 217 lop~ 5000;
#X obj 433 63 lop~ 5000;
#X obj 433 85 lop~ 5000;
#X obj 433 107 lop~ 5000;
#X obj 433 129 lop~ 5000;
#X obj 433 151 lop~ 5000;
#X obj 433 173 lop~ 5000;
#X obj 433 195 lop~ 5000;
#X obj 433 217 lop~ 5000;
#X obj 495 63 lop~ 5000;
#X obj 495 85 lop~ 5000;
#X obj 495 107 lop~ 5000;
#X obj 495 129 lop~ 5000;
#X obj 495 151 lop~ 5000;
#X obj 495 173 lop~ 5000;
#X obj 495 195 lop~ 5000;
#X obj 495 217 lop~ 5000;
#X obj 61 31 inlet~;
#X obj 106 31 inlet~;
#X obj 152 31 inlet~;
#X obj 197 31 inlet~;
#X obj 242 31 inlet~;
#X obj 287 31 inlet~;
#X obj 333 31 inlet~;
#X obj 378 31 inlet~;
#X obj 61 255 outlet~;
#X obj 106 255 outlet~;
#X obj 152 255 outlet~;
#X obj 197 255 outlet~;
#X obj 242 255 outlet~;
#X obj 287 255 outlet~;
#X obj 333 255 outlet~;
#X obj 378 255 outlet~;
#X connect 0 0 1 0;
#X connect 1 0 2 0;
#X connect 2 0 3 0;
#X connect 3 0 4 0;
#X connect 4 0 5 0;
#X connect 5 0 6 0;
#X connect 6 0 7 0;
#X connect 7 0 72 0;
#X connect 8 0 9 0;
#X connect 9 0 10 0;
#X connect 10 0 11 0;
#X connect 11 0 12 0;
#X connect 12 0 13 0;
#X connect 13 0 14 0;
#X connect 14 0 15 0;
#X connect 15 0 73 0;
#X connect 16 0 17 0;
#X connect 17 0 18 0;
#X connect 18 0 19 0;
#X connect 19 0 20 0;
#X connect 20 0 21 0;
#X connect 21 0 22 0;
#X connect 22 0 23 0;
#X connect 23 0 74 0;
#X connect 24 0 25 0;
#X connect 25 0 26 0;
#X connect 26 0 27 0;
#X connect 27 0 28 0;
#X connect 28 0 29 0;
#X connect 29 0 30 0;
#X connect 30 0 31 0;
#X connect 31 0 75 0;
#X connect 32 0 33 0;
#X connect 33 0 34 0;
#X connect 34 0 35 0;
#X connect 35 0 36 0;
#X connect 36 0 37 0;
#X connect 37 0 38 0;
#X connect 38 0 39 0;
#X connect 39 0 76 0;
#X connect 40 0 41 0;
#X connect 41 0 42 0;
#X connect 42 0 43 0;
#X connect 43 0 44 0;
#X connect 44 0 45 0;
#X connect 45 0 46 0;
#X connect 46 0 47 0;
#X connect 47 0 77 0;
#X connect 48 0 49 0;
#X connect 49 0 50 0;
#X connect 50 0 51 0;
#X connect 51 0 52 0;
#X connect 52 0 53 0;
#X connect 53 0 54 0;
#X connect 54 0 55 0;
#X connect 55 0 78 0;
#X connect 56 0 57 0;
#X connect 57 0 58 0;
#X connect 58 0 59 0;
#X connect 59 0 60 0;
#X connect 60 0 61 0;
#X connect 61 0 62 0;
#X connect 62 0 63 0;
#X connect 63 0 79 0;
#X connect 64 0 0 0;
#X connect 65 0 8 0;
#X connect 66 0 16 0;
#X connect 67 0 24 0;
#X connect 68 0 32 0;
#X connect 69 0 40 0;
#X connect 70 0 48 0;
#X connect 71 0 56 0;
