#N canvas 149 489 450 300 10;
#X obj 117 91 inlet;
#X obj 158 91 inlet;
#X floatatom 117 150 5 0 0 0 - - -;
#X obj 158 120 t b f;
#X obj 117 188 &&;
#X obj 117 220 outlet;
#X connect 0 0 2 0;
#X connect 1 0 3 0;
#X connect 2 0 4 0;
#X connect 3 0 2 0;
#X connect 3 1 4 1;
#X connect 4 0 5 0;
