#N canvas 469 229 626 420 10;
#X obj 81 48 inlet~;
#X obj 126 48 inlet~;
#X obj 172 48 inlet~;
#X obj 217 48 inlet~;
#X obj 262 48 inlet~;
#X obj 307 48 inlet~;
#X obj 353 48 inlet~;
#X obj 398 48 inlet~;
#X obj 431 1 inlet;
#X obj 81 166 outlet;
#X obj 126 166 outlet;
#X obj 172 166 outlet;
#X obj 217 166 outlet;
#X obj 262 166 outlet;
#X obj 307 166 outlet;
#X obj 353 166 outlet;
#X obj 398 166 outlet;
#X obj 81 134 env~;
#X obj 126 134 env~;
#X obj 172 134 env~;
#X obj 217 134 env~;
#X obj 262 134 env~;
#X obj 307 134 env~;
#X obj 353 134 env~;
#X obj 398 134 env~;
#X obj 81 100 *~ 0.05;
#X obj 126 100 *~ 0.05;
#X obj 172 99 *~ 0.05;
#X obj 217 99 *~ 0.05;
#X obj 262 99 *~ 0.05;
#X obj 307 99 *~ 0.05;
#X obj 353 98 *~ 0.05;
#X obj 398 98 *~ 0.05;
#X connect 0 0 25 0;
#X connect 1 0 26 0;
#X connect 2 0 27 0;
#X connect 3 0 28 0;
#X connect 4 0 29 0;
#X connect 5 0 30 0;
#X connect 6 0 31 0;
#X connect 7 0 32 0;
#X connect 8 0 25 1;
#X connect 8 0 26 1;
#X connect 8 0 27 1;
#X connect 8 0 28 1;
#X connect 8 0 29 1;
#X connect 8 0 30 1;
#X connect 8 0 31 1;
#X connect 8 0 32 1;
#X connect 17 0 9 0;
#X connect 18 0 10 0;
#X connect 19 0 11 0;
#X connect 20 0 12 0;
#X connect 21 0 13 0;
#X connect 22 0 14 0;
#X connect 23 0 15 0;
#X connect 24 0 16 0;
#X connect 25 0 17 0;
#X connect 26 0 18 0;
#X connect 27 0 19 0;
#X connect 28 0 20 0;
#X connect 29 0 21 0;
#X connect 30 0 22 0;
#X connect 31 0 23 0;
#X connect 32 0 24 0;
