#N canvas 689 451 450 300 10;
#X obj 135 152 threshold~;
#X msg 144 120 set \$1 100 \$1 100;
#X obj 135 182 tgl 15 0 empty empty empty 17 7 0 10 -262144 -1 -1 0
1;
#X obj 144 73 inlet;
#X obj 95 119 inlet~;
#X obj 135 212 outlet;
#X obj 196 74 r thresh;
#X connect 0 0 2 0;
#X connect 0 1 2 0;
#X connect 1 0 0 0;
#X connect 2 0 5 0;
#X connect 3 0 1 0;
#X connect 4 0 0 0;
#X connect 6 0 1 0;
